<svg viewBox="0 0 320 256" fill="none" xmlns="http://www.w3.org/2000/svg">
    <defs>
        <title>IPG logo</title>
        <desc>Independence Pet Group brand image</desc>
        <style>
            .green-blue { fill: #4ac9be }
            .dark-gray { fill: #363636 }
            .orange-yellow { fill: #ffd75e }
            .subtle-beige { fill: #ffeed8 }
            .light-gray { fill: #f4f8fb }
        </style>
    </defs>
    <path class="orange-yellow" d="m65 198-2-2c0-2 2-3 5-4l6-3 1-5v-93l-2-6c-2-2-3-4-6-4l-2-1v-3c0-2 0-3 2-3 9.9717-2.3725 19.6853-5.722 29-10l2-1 2-1c2 0 2 1 2 3v7l-1 4 1 2 13-9c6-3 12-5 18-5 7 0 12 2 18 6 5 4 9 8 11 14 3 6 4 12 4 19-.188 8.331-2.375 16.496-6.378 23.805-4.003 7.309-9.703 13.55-16.622 18.195-7 5-14 7-23 7l-7-1-9-3v34c0 3 0 5 2 6 1 2 4 3 8 4 3 1 4 2 4 4l-1 2-2 1-13-1c-12.3133-.994-24.6867-.994-37 0zm61-59c3-2 5-5 7-10 2-5 3-11 3-19 0-12-2-20-6-25-4-4-8-6-12-6l-10 3c-3 2-4 4-4 6l-1 33c.125 6.64 2.606 13.02 7 18 3 2 5 3 9 3l7-3zm142-61c-8 6-14 5-17 5l-1 1v7c0 8-2 23-20 34-7 3-13 5-20 5l-13-2h-2l-2 4c0 2 2 3 6 4l22 3c15 1 26 3 32 7 7 3 10 7 10 14 0 7-3 14-8 21-5 7-12 13-21 17-8 5-15 7-24 7-13 2-24-2-31-6-8-4-12-9-12-16 0-9 8-17 12-19l6-5v-2c-8-4-12-7-12-14 0-9 11-14 15-18v-2c-5-3-8-7-11-11-3-5-4-10-4-15 0-7 2-13 5-18 4-5 9-9 16-12 6-3 13-5 20-5 14 1 27 5 31 7 10 4 18 3 21 2 3-1 5-2 6-4 1-1 3 0 2 1-1 4-3 8-6 10zm-41 88-15-2c-5.38-.221-10.731-.89-16-2-6 4-10 9-10 14 0 6 2 10 7 14 4 3 13 5 20 5 5 0 13-3 17-6 7-6 8-11 8-14 0-3-3-7-11-9zm-6-52c3-4 4-10 4-18 0-8-1-14-4-18-2-4-6-7-10-7-3 0-6 2-9 7-2 4-3 10-3 17 0 7 1 14 3 19 3 5 6 7 10 7 4 0 7-2 9-7zm-196-66c-3-4-5-7-5-12 0-5 2-9 5-12 3-3 7-5 12-5 5 0 9 2 12 5 3 3 5 7 5 12 0 5-2 9-5 12-3 3-7 5-12 5-5 0-9-2-12-5zm-25-14c0 1.9891.7902 3.8968 2.1967 5.3033 1.4065 1.4065 3.3142 2.1967 5.3033 2.1967 1.9891 0 3.8968-.7902 5.3033-2.1967 1.4065-1.4065 2.1967-3.3142 2.1967-5.3033 0-1.9891-.7902-3.8968-2.1967-5.3033-1.4065-1.4065-3.3142-2.1967-5.3033-2.1967-1.9891 0-3.8968.7902-5.3033 2.1967-1.4065 1.4065-2.1967 3.3142-2.1967 5.3033zm7-19c0 1.8565.7375 3.637 2.0503 4.9497 1.3127 1.3128 3.0932 2.0503 4.9497 2.0503 1.8565 0 3.637-.7375 4.9497-2.0503 1.3128-1.3127 2.0503-3.0932 2.0503-4.9497 0-1.8565-.7375-3.637-2.0503-4.9497-1.3127-1.3128-3.0932-2.0503-4.9497-2.0503-1.8565 0-3.637.7375-4.9497 2.0503-1.3127 1.3127-2.0503 3.0932-2.0503 4.9497zm19-8c0 1.8565.7375 3.637 2.0503 4.9497 1.3127 1.3128 3.0932 2.0503 4.9497 2.0503 1.8565 0 3.637-.7375 4.9497-2.0503 1.3128-1.3127 2.0503-3.0932 2.0503-4.9497 0-1.8565-.7375-3.637-2.0503-4.9497-1.3127-1.3128-3.0932-2.0503-4.9497-2.0503-1.8565 0-3.637.7375-4.9497 2.0503-1.3128 1.3128-2.0503 3.0932-2.0503 4.9497zm21 4c0 1.8565.7375 3.637 2.0503 4.9497 1.3127 1.3128 3.0932 2.0503 4.9497 2.0503 1.8565 0 3.637-.7375 4.9497-2.0503 1.3128-1.3127 2.0503-3.0932 2.0503-4.9497 0-1.8565-.7375-3.637-2.0503-4.9497-1.3127-1.3127-3.0932-2.0503-4.9497-2.0503-1.8565 0-3.637.7375-4.9497 2.0503-1.3128 1.3128-2.0503 3.0932-2.0503 4.9497zm-35 137-1-2c0-2 1-3 3-4l8-2 2-5v-42l-2-10-7-3-2-1v-5l2-1 16-5c5-1 10-4 16-7l5-1 2 1 1 2-1 8c-2 9-2 16-2 21v43l2 4 7 3 3 2 1 2c0 2-1 3-3 3-8.3441.041-16.6858-.293-25-1-7.6792-.092-15.3577.242-23 1l-2-1z" />

    <g id="abbr">
        <path class="green-blue" d="m-25-14c0 1.9891.7902 3.8968 2.1967 5.3033 1.4065 1.4065 3.3142 2.1967 5.3033 2.1967 1.9891 0 3.8968-.7902 5.3033-2.1967 1.4065-1.4065 2.1967-3.3142 2.1967-5.3033 0-1.9891-.7902-3.8968-2.1967-5.3033-1.4065-1.4065-3.3142-2.1967-5.3033-2.1967-1.9891 0-3.8968.7902-5.3033 2.1967-1.4065 1.4065-2.1967 3.3142-2.1967 5.3033z" />
        <path class="subtle-beige" d="m7-19c0 1.8565.7375 3.637 2.0503 4.9497 1.3127 1.3128 3.0932 2.0503 4.9497 2.0503 1.8565 0 3.637-.7375 4.9497-2.0503 1.3128-1.3127 2.0503-3.0932 2.0503-4.9497 0-1.8565-.7375-3.637-2.0503-4.9497-1.3127-1.3128-3.0932-2.0503-4.9497-2.0503-1.8565 0-3.637.7375-4.9497 2.0503-1.3127 1.3127-2.0503 3.0932-2.0503 4.9497z" />
        <path class="light-gray" d="m19-8c0 1.8565.7375 3.637 2.0503 4.9497 1.3127 1.3128 3.0932 2.0503 4.9497 2.0503 1.8565 0 3.637-.7375 4.9497-2.0503 1.3128-1.3127 2.0503-3.0932 2.0503-4.9497 0-1.8565-.7375-3.637-2.0503-4.9497-1.3127-1.3128-3.0932-2.0503-4.9497-2.0503-1.8565 0-3.637.7375-4.9497 2.0503-1.3128 1.3128-2.0503 3.0932-2.0503 4.9497z" />
        <path class="orange-yellow" d="m21 4c0 1.8565.7375 3.637 2.0503 4.9497 1.3127 1.3128 3.0932 2.0503 4.9497 2.0503 1.8565 0 3.637-.7375 4.9497-2.0503 1.3128-1.3127 2.0503-3.0932 2.0503-4.9497 0-1.8565-.7375-3.637-2.0503-4.9497-1.3127-1.3127-3.0932-2.0503-4.9497-2.0503-1.8565 0-3.637.7375-4.9497 2.0503-1.3128 1.3128-2.0503 3.0932-2.0503 4.9497z" />
        <path class="dark-gray" d="m-196-66c-3-4-5-7-5-12 0-5 2-9 5-12 3-3 7-5 12.2-4.9 5 0 9 2 12 5 3 3 5 7 5 12 0 5-2 9-5 12-3 3-7 5-12 5-5 0-9-2-12-5z" />
        <path d="" />
    </g>
</svg>