<svg width="96" height="136" viewBox="0 0 96 136" fill="none" xmlns="http://www.w3.org/2000/svg">
    <path
        d="M86.8084 50.0662C86.8077 49.4045 86.6764 48.7495 86.4219 48.1388C86.1674 47.528 85.7948 46.9735 85.3255 46.507L48.4703 9.19039L10.7143 46.461C10.2299 46.9276 9.84451 47.4871 9.58129 48.106C9.31808 48.725 9.18241 49.3906 9.18241 50.0631C9.17674 50.7377 9.30475 51.4066 9.55905 52.0315C9.81334 52.6563 10.1889 53.2246 10.664 53.7035C11.1391 54.1825 11.7044 54.5627 12.3273 54.8221C12.9501 55.0816 13.6182 55.2151 14.2929 55.2151L33.1234 55.2151C33.1234 55.2151 36.3926 61.7546 36.3926 72.8121C36.3926 85.7165 31.9438 104.778 12.663 126.81C12.663 126.81 63.8141 116.582 63.8141 55.2151L81.6826 55.2151C82.3583 55.2171 83.0278 55.0852 83.6522 54.8268C84.2767 54.5685 84.8436 54.1889 85.3203 53.7101C85.797 53.2312 86.174 52.6626 86.4294 52.0371C86.6849 51.4116 86.8137 50.7418 86.8084 50.0662ZM96 50.0662C96.0037 53.7184 94.6144 57.2347 92.115 59.8984C90.7828 61.3313 89.1672 62.4717 87.3708 63.2474C85.5743 64.023 83.6363 64.4169 81.6795 64.4041L72.6319 64.4041C71.6607 76.1875 68.7837 86.9203 64.0531 96.4003C59.2552 106.034 52.4078 114.502 43.9909 121.211C29.6122 132.694 15.0773 135.692 14.4645 135.821C12.5809 136.198 10.6265 135.976 8.87591 135.185C7.12527 134.395 5.66638 133.076 4.70424 131.413C3.74209 129.751 3.32503 127.83 3.51166 125.918C3.69829 124.007 4.47923 122.202 5.74476 120.757C23.4815 100.495 27.1918 83.5019 27.1918 72.8121C27.201 69.9891 26.927 67.1724 26.3737 64.4041L14.2929 64.4041C12.3391 64.4134 10.4046 64.0175 8.61157 63.2415C6.81856 62.4654 5.20602 61.3261 3.8758 59.8954C1.38165 57.229 -0.00405519 53.7137 1.44427e-05 50.0631C-0.00177101 48.1742 0.374663 46.304 1.10713 44.5628C1.8396 42.8215 2.91327 41.2445 4.2649 39.9246L42.0117 2.65087C42.8706 1.80283 43.8883 1.13226 45.0065 0.677455C46.1247 0.222647 47.3216 -0.00749289 48.5288 0.000186799C49.736 0.00786648 50.9298 0.253212 52.0422 0.72221C53.1545 1.19121 54.1636 1.87467 55.0116 2.73357L91.8638 40.0532C94.5144 42.7116 96.002 46.3126 96 50.0662Z"
        fill="#FFD700" />
</svg>