
<svg xmlns="http://www.w3.org/2000/svg" fill="none" viewBox="0 0 799 173">
  <path fill="turquoise" d="M15.9 110.7c-.5-.4-.7-.9-.7-1.4 0-1.4.8-2.4 2.4-2.9 2.7-.7 4.5-1.4 5.5-2.1 1-.7 1.4-1.8 1.4-3.2v-31c0-3.3-.5-5.5-1.4-6.8-1-1.3-2.5-2.1-4.7-2.4-.6-.1-1-.4-1.3-.9-.3-.5-.4-1.1-.4-1.8s.2-1.2.5-1.7.7-.8 1.2-.9c4.4-.9 8.3-2 11.8-3.3 3.4-1.3 7.4-3 11.9-5 1.7-.8 2.8-1.1 3.2-1.1.7 0 1.2.2 1.5.6.3.4.5.9.5 1.4l-.7 6.3c-.8 6.5-1.1 11.5-1.1 15.1V101c0 1.2.5 2.2 1.4 3 1 .8 1.8 1.6 4.5 2.4.9.3 1.5.6 1.9 1 .4.4.6 1 .6 1.7 0 1.3-.7 2-2.2 2-1.8 0-4-.1-8.4-.3-4.2-.2-7.1-.3-8.6-.3-1.6 0-4.4.1-8.2.3-3.1.3-6.1.4-9 .4-.6.1-1.1-.1-1.6-.5Zm8.6-70.3c-2.4-2.4-3.6-5.2-3.6-8.5 0-3.5 1.2-6.5 3.5-8.9 2.3-2.4 5.2-3.6 8.5-3.6 3.5 0 6.5 1.2 8.9 3.6 2.4 2.4 3.6 5.4 3.6 8.9 0 3.4-1.2 6.2-3.6 8.5-2.4 2.3-5.4 3.5-8.9 3.5-3.1.1-6-1.1-8.4-3.5Zm34.7 70.2c-.6-.4-.9-.9-.9-1.5 0-1.2 1.1-2.2 3.3-3 1.8-.6 3.2-1.2 4-1.9.9-.7 1.3-1.9 1.3-3.6V67.3c0-4.5-1.4-7-4.3-7.5-.4-.1-.7-.4-1.1-.9-.3-.5-.5-1.1-.5-1.9 0-1.4.5-2.3 1.4-2.6 3.6-.9 7.6-1.9 11.8-3.2 4.2-1.3 7.7-2.6 10.3-3.9.2-.1.6-.3 1.3-.7.7-.4 1.2-.6 1.6-.6 1 0 1.4.6 1.4 1.9l-.3 3c-.3 3.2-.4 4.8-.4 5 0 1.2.1 2 .3 2.2 3.6-3.3 7-5.8 10.2-7.5 3.2-1.6 6.8-2.4 10.9-2.4 5.3 0 9.6 1.9 12.9 5.6 3.3 3.7 5 8.8 5 15.1v31.9c0 1.7.4 2.9 1.2 3.5.8.6 2.2 1.2 4.1 1.8 1.9.7 2.9 1.7 2.9 3 0 .6-.3 1.1-.8 1.5-.5.4-1.1.6-1.7.6-3 0-5.8-.1-8.6-.4-3.4-.2-5.9-.3-7.5-.3-1.6 0-4.1.1-7.3.3-2.7.3-5.5.4-8.5.4-.6 0-1.1-.2-1.6-.6-.5-.4-.7-.9-.7-1.5 0-1.3.9-2.3 2.7-3 1.8-.6 3.1-1.2 3.8-1.8.7-.6 1.1-1.8 1.1-3.5V72.5c0-3.5-.8-6.3-2.3-8.3-1.5-2-3.5-3-6-3-1.7 0-3.3.3-4.7.8-1.4.5-3 1.4-4.7 2.5-.8.5-1.1 1.3-1.1 2.6v33.7c0 1.7.4 2.9 1.1 3.4.7.6 2 1.2 3.8 1.9 1.8.7 2.7 1.7 2.7 3 0 .6-.2 1.1-.7 1.5-.5.4-1 .6-1.6.6-2.9 0-5.6-.1-8.2-.4-3.3-.2-5.6-.3-7.2-.3-1.6 0-4.1.1-7.8.3-2.9.3-5.8.4-8.8.4-.6.1-1.2-.1-1.8-.6Zm178.3-42.8c2.3 0 4 0 5.1-.1 1.1-.1 2.1-.3 2.9-.6.4-.1.7-.6 1.1-1.4.3-.9.5-1.8.5-2.9 0-2.5-.8-4.5-2.4-6.1-1.6-1.6-3.6-2.4-6.1-2.4-2.9 0-5.5 1.2-7.8 3.6-2.3 2.4-3.4 5-3.2 7.8 0 .7.2 1.2.6 1.6.4.4.9.6 1.6.6h7.7v-.1Zm-15.7 40.9c-4.2-2.8-7.4-6.6-9.8-11.3-2.4-4.8-3.6-10.1-3.6-15.9 0-6 1.4-11.6 4.3-16.7s6.8-9.1 11.7-12.1c4.9-3 10.3-4.4 16.2-4.4 4 0 7.7.9 11.1 2.7 3.4 1.8 6.1 4.3 8.1 7.3 2 3.1 3 6.5 3 10.2 0 1.9-.4 3.3-1.1 4.2-.7.9-1.8 1.4-3.4 1.4h-28.4c-1.3 0-2.3.4-2.9 1.1-.6.8-.9 2.1-.9 3.9 0 5.3 1.7 9.7 5 13.2s7.7 5.3 12.9 5.3c2.6 0 5-.5 7.3-1.5s4.8-2.5 7.5-4.4c.9-.7 1.5-1 2-1 1.1 0 1.6.6 1.6 1.9 0 .9-.3 2.2-.9 3.9-1.4 4.3-4.5 8.1-9.1 11.4-4.6 3.3-10.2 5-16.7 5-5.2-.1-9.8-1.4-13.9-4.2Zm88.6-4.7c1.9-1.6 3.6-4.1 5-7.6s2.2-8 2.2-13.4c0-9-1.4-15.1-4.1-18.2-2.7-3.1-5.7-4.7-8.8-4.7-2.4 0-4.8.8-7.1 2.3-2.3 1.5-3.5 2.9-3.5 4.2l-.1 24.1c0 2.1.4 4.4 1.3 6.9s2.1 4.6 3.8 6.3c1.7 1.7 3.8 2.6 6.2 2.6 1.5-.1 3.2-.9 5.1-2.5Zm-44.9 37.3c-.6-.4-.9-.9-.9-1.6 0-1.3 1.1-2.3 3.3-3 2.1-.7 3.5-1.4 4.2-2.1.7-.7 1.1-1.8 1.1-3.4v-62c0-1.9-.6-3.6-1.7-5.1-1.1-1.5-2.5-2.4-4.2-2.7-.7-.2-1.1-.5-1.4-.9-.3-.4-.4-1-.4-1.9 0-1.4.6-2.3 1.7-2.6 3.5-.8 7.3-1.8 11.4-3.2 4.1-1.3 7.4-2.7 10.1-4 .2-.1.6-.3 1.3-.7.7-.4 1.2-.6 1.6-.6 1 0 1.4.6 1.4 1.9 0 0-.7 7.2-.7 8.3 0 1 .1 1.6.4 1.8 1.5.6 5-4.3 9.6-6.7 4.6-2.4 8.9-3.6 12.9-3.6 4.9 0 9.2 1.3 12.9 4 3.7 2.7 6.6 6.2 8.5 10.6 2 4.4 2.9 8.9 2.9 13.7 0 5.9-1.5 11.7-4.5 17.2-3 5.6-7.1 10-12.2 13.5-5.1 3.4-10.7 5.2-16.7 5.2-1.5 0-3.4-.3-5.7-.8-2.3-.5-4.3-1.2-6-1.9-.4 0-.6.5-.6 1.6v17.2c0 2 .6 3.5 1.7 4.4 1.1.9 3 1.9 5.8 2.7 2.1.6 3.2 1.5 3.2 2.9 0 .6-.2 1.1-.6 1.5-.4.4-1 .6-1.7.6-3.3 0-6.5-.1-9.8-.4-4-.2-6.8-.3-8.5-.3-1.5 0-4.1.1-7.8.3-2.9.3-5.8.4-8.8.4-.6.2-1.2.1-1.8-.3Zm108.2-73.5c2.3 0 4 0 5.1-.1 1.1-.1 2.1-.3 2.9-.6.4-.1.7-.6 1.1-1.4.3-.9.5-1.8.5-2.9 0-2.5-.8-4.5-2.4-6.1-1.6-1.6-3.6-2.4-6.1-2.4-2.9 0-5.5 1.2-7.8 3.6-2.3 2.4-3.4 5-3.2 7.8 0 .7.2 1.2.6 1.6.4.4.9.6 1.6.6h7.7v-.1Zm-15.8 40.9c-4.2-2.8-7.4-6.6-9.8-11.3-2.4-4.8-3.6-10.1-3.6-15.9 0-6 1.4-11.6 4.3-16.7s6.8-9.1 11.7-12.1c4.9-3 10.3-4.4 16.2-4.4 4 0 7.7.9 11.1 2.7 3.4 1.8 6.1 4.3 8.1 7.3 2 3.1 3 6.5 3 10.2 0 1.9-.4 3.3-1.1 4.2-.7.9-1.8 1.4-3.4 1.4H366c-1.3 0-2.3.4-2.9 1.1-.6.8-.9 2.1-.9 3.9 0 5.3 1.7 9.7 5 13.2s7.7 5.3 12.9 5.3c2.6 0 5-.5 7.3-1.5s4.8-2.5 7.5-4.4c.9-.7 1.5-1 2-1 1.1 0 1.6.6 1.6 1.9 0 .9-.3 2.2-.9 3.9-1.4 4.3-4.5 8.1-9.1 11.4-4.6 3.3-10.2 5-16.7 5-5.1-.1-9.7-1.4-13.9-4.2Zm43.1 1.9c-.6-.4-.9-.9-.9-1.5 0-1.2 1.1-2.2 3.3-3 1.8-.6 3.2-1.2 4-1.9.9-.7 1.3-1.9 1.3-3.6V67.3c0-4.5-1.4-7-4.3-7.5-.4-.1-.7-.4-1.1-.9-.3-.5-.5-1.1-.5-1.9 0-1.4.5-2.3 1.4-2.6 3.6-.9 7.6-1.9 11.8-3.2 4.2-1.3 7.7-2.6 10.3-3.9.2-.1.6-.3 1.3-.7.7-.4 1.2-.6 1.6-.6 1 0 1.4.6 1.4 1.9l-.3 3c-.3 3.2-.4 4.8-.4 5 0 1.2.1 2 .3 2.2 3.6-3.3 7-5.8 10.2-7.5 3.2-1.6 6.8-2.4 10.9-2.4 5.3 0 9.6 1.9 12.9 5.6 3.3 3.7 5 8.8 5 15.1v31.9c0 1.7.4 2.9 1.2 3.5.8.6 2.2 1.2 4.1 1.8 1.9.7 2.9 1.7 2.9 3 0 .6-.3 1.1-.8 1.5-.5.4-1.1.6-1.7.6-3 0-5.8-.1-8.6-.4-3.4-.2-5.9-.3-7.5-.3-1.6 0-4.1.1-7.3.3-2.7.3-5.5.4-8.5.4-.6 0-1.1-.2-1.6-.6-.5-.4-.7-.9-.7-1.5 0-1.3.9-2.3 2.7-3 1.8-.6 3.1-1.2 3.8-1.8.7-.6 1.1-1.8 1.1-3.5V72.5c0-3.5-.8-6.3-2.3-8.3-1.5-2-3.5-3-6-3-1.7 0-3.3.3-4.7.8-1.4.5-3 1.4-4.7 2.5-.8.5-1.1 1.3-1.1 2.6v33.7c0 1.7.4 2.9 1.1 3.4.7.6 2 1.2 3.8 1.9 1.8.7 2.7 1.7 2.7 3 0 .6-.2 1.1-.7 1.5-.5.4-1 .6-1.6.6-2.9 0-5.6-.1-8.2-.4-3.3-.2-5.6-.3-7.2-.3-1.5 0-4.1.1-7.8.3-2.9.3-5.8.4-8.8.4-.6.1-1.2-.1-1.8-.6Zm115.9-9.1c.1 0 .3-.1.4-.1 2.6-.9 4.3-3.4 4.3-6.2l-.1-29.5c0-1.3-.6-2.8-1.9-4.4-1.2-1.6-2.8-2.9-4.7-3.9-1.9-1.1-3.6-1.6-5.1-1.6-3.4 0-6.3 2.2-8.5 6.5s-3.4 9.8-3.4 16.5c0 7 1.3 12.7 3.9 17.2 2.6 4.4 5.9 6.7 9.9 6.7 1.4-.2 3.2-.5 5.2-1.2Zm34 .4c.5 0 .8.1 1 .3.2.2.3.6.3 1.3 0 .8-.3 1.6-.9 2.5-.6.9-1.2 1.4-1.7 1.4-8.2 1-15.8 2.7-22.8 5.3-1.1.6-2 .9-2.6.9-.3 0-.7-.3-1.3-1-.1-.1-.1-.2-.2-.3-.5-.6-.6-1.3-.3-2 .6-1.5.8-3.1.8-4.4 0-1.1-1.4-1.6-2.1-.8-1.8 2-4 3.7-6.5 5-3.4 1.8-7 2.7-10.8 2.7-5.2 0-9.9-1.3-14.2-3.9-4.3-2.6-7.7-6.2-10.1-10.8-2.4-4.6-3.7-9.7-3.7-15.4 0-6.6 1.5-12.5 4.5-17.7 3-5.2 7.1-9.2 12.3-12.1 5.3-2.9 11.3-4.3 18.1-4.3 2.8 0 5.6.4 8.5 1.1l1.9.4c.4 0 .6-.5.6-1.6V32.3c0-3.4-.4-5.9-1.1-7.5-.8-1.5-2.2-2.5-4.2-2.9-1.1-.3-1.7-1.1-1.7-2.3 0-1.2.5-2 1.6-2.2 3.4-.7 7.2-1.7 11.3-2.9 4.1-1.3 7.4-2.5 10.1-3.7 2.1-1 3.3-1.4 3.7-1.4.5 0 .9.2 1.2.5.3.3.5.7.5 1.2-.1.4-.2 1.4-.4 2.9-.1 1.6-.3 3.2-.4 5l-.9 74.1c0 3.4.2 5.7.7 7 .5 1.3 1.3 2 2.6 2l5.6-.4h.6v.2Zm30.4-34.1c2.3 0 4 0 5.1-.1 1.1-.1 2.1-.3 2.9-.6.4-.1.7-.6 1.1-1.4.3-.9.5-1.8.5-2.9 0-2.5-.8-4.5-2.4-6.1-1.6-1.6-3.6-2.4-6.1-2.4-2.9 0-5.5 1.2-7.8 3.6-2.3 2.4-3.4 5-3.2 7.8 0 .7.2 1.2.6 1.6.4.4.9.6 1.6.6h7.7v-.1Zm-15.7 40.9c-4.2-2.8-7.4-6.6-9.8-11.3-2.4-4.8-3.6-10.1-3.6-15.9 0-6 1.4-11.6 4.3-16.7s6.8-9.1 11.7-12.1c4.9-3 10.3-4.4 16.2-4.4 4 0 7.7.9 11.1 2.7 3.4 1.8 6.1 4.3 8.1 7.3 2 3.1 3 6.5 3 10.2 0 1.9-.4 3.3-1.1 4.2-.7.9-1.8 1.4-3.4 1.4h-28.4c-1.3 0-2.3.4-2.9 1.1-.6.8-.9 2.1-.9 3.9 0 5.3 1.7 9.7 5 13.2s7.7 5.3 12.9 5.3c2.6 0 5-.5 7.3-1.5s4.8-2.5 7.5-4.4c.9-.7 1.5-1 2-1 1.1 0 1.6.6 1.6 1.9 0 .9-.3 2.2-.9 3.9-1.4 4.3-4.5 8.1-9.1 11.4-4.6 3.3-10.2 5-16.7 5-5.1-.1-9.7-1.4-13.9-4.2Zm42.1 1.9c-.6-.4-.9-.9-.9-1.5 0-1.2 1.1-2.2 3.3-3 1.8-.6 3.2-1.2 4-1.9.9-.7 1.3-1.9 1.3-3.6V67.3c0-4.5-1.4-7-4.3-7.5-.4-.1-.7-.4-1.1-.9-.3-.5-.5-1.1-.5-1.9 0-1.4.5-2.3 1.4-2.6 3.6-.9 7.6-1.9 11.8-3.2 4.2-1.3 7.7-2.6 10.3-3.9.2-.1.6-.3 1.3-.7.7-.4 1.2-.6 1.6-.6 1 0 1.4.6 1.4 1.9l-.3 3c-.3 3.2-.4 4.8-.4 5 0 1.2.1 2 .3 2.2 3.6-3.3 7-5.8 10.2-7.5 3.2-1.6 6.8-2.4 10.9-2.4 5.3 0 9.6 1.9 12.9 5.6 3.3 3.7 5 8.8 5 15.1v31.9c0 1.7.4 2.9 1.2 3.5.8.6 2.2 1.2 4.1 1.8 1.9.7 2.9 1.7 2.9 3 0 .6-.3 1.1-.8 1.5-.5.4-1.1.6-1.7.6-3 0-5.8-.1-8.6-.4-3.4-.2-5.9-.3-7.5-.3-1.6 0-4.1.1-7.3.3-2.7.3-5.5.4-8.5.4-.6 0-1.1-.2-1.6-.6-.5-.4-.7-.9-.7-1.5 0-1.3.9-2.3 2.7-3 1.8-.6 3.1-1.2 3.8-1.8.7-.6 1.1-1.8 1.1-3.5V72.5c0-3.5-.8-6.3-2.3-8.3-1.5-2-3.5-3-6-3-1.7 0-3.3.3-4.7.8-1.4.5-3 1.4-4.7 2.5-.8.5-1.1 1.3-1.1 2.6v33.7c0 1.7.4 2.9 1.1 3.4.7.6 2 1.2 3.8 1.9 1.8.7 2.7 1.7 2.7 3 0 .6-.2 1.1-.7 1.5-.5.4-1 .6-1.6.6-2.9 0-5.6-.1-8.2-.4-3.3-.2-5.6-.3-7.2-.3-1.5 0-4.1.1-7.8.3-2.9.3-5.8.4-8.8.4-.5.1-1.2-.1-1.8-.6Zm91.3-1.9c-4.2-2.8-7.4-6.6-9.8-11.3-2.4-4.8-3.6-10.1-3.6-15.9 0-6 1.4-11.6 4.3-16.7s6.8-9.1 11.8-12.1c5-3 10.4-4.4 16.4-4.4 3.9 0 7.7.7 11.2 2.2 3.5 1.4 6.6 3.5 9 6.2.8 1 1.1 1.8 1.1 2.6 0 .9-.9 2.2-2.7 4.1-1.8 1.9-3.3 2.8-4.3 2.8-.9 0-1.7-.2-2.4-.6-.7-.4-1.7-1.1-2.8-2.1-2.6-2.2-5.1-3.9-7.7-5.2-2.5-1.3-4.8-1.9-6.7-1.9-3.4 0-6 1.4-7.5 4.2-1.6 2.8-2.4 7.5-2.4 14.1 0 7.1 1.5 12.6 4.6 16.5 3.1 3.9 7.5 5.9 13.4 5.9 2.7 0 5.1-.4 7.2-1.3 2.2-.9 4.5-2.2 7-4.2.2-.2.5-.5 1.1-.9.5-.4 1-.6 1.5-.6 1.1 0 1.7.8 1.7 2.3 0 1.2-.3 2.5-.9 3.9-.9 2.2-2.6 4.6-5.1 7.2-2.5 2.6-5.6 4.8-9.3 6.7-3.6 1.9-7.4 2.8-11.3 2.8-5-.2-9.6-1.5-13.8-4.3Zm74.3-40.9c2.3 0 4 0 5.1-.1 1.1-.1 2.1-.3 2.9-.6.4-.1.7-.6 1.1-1.4.3-.9.5-1.8.5-2.9 0-2.5-.8-4.5-2.4-6.1-1.6-1.6-3.6-2.4-6.1-2.4-2.9 0-5.5 1.2-7.8 3.6-2.3 2.4-3.4 5-3.2 7.8 0 .7.2 1.2.6 1.6.4.4.9.6 1.6.6h7.7v-.1Zm-15.7 40.9c-4.2-2.8-7.4-6.6-9.8-11.3-2.4-4.8-3.6-10.1-3.6-15.9 0-6 1.4-11.6 4.3-16.7s6.8-9.1 11.7-12.1c4.9-3 10.3-4.4 16.2-4.4 4 0 7.7.9 11.1 2.7 3.4 1.8 6.1 4.3 8.1 7.3 2 3.1 3 6.5 3 10.2 0 1.9-.4 3.3-1.1 4.2-.7.9-1.8 1.4-3.4 1.4h-28.4c-1.3 0-2.3.4-2.9 1.1-.6.8-.9 2.1-.9 3.9 0 5.3 1.7 9.7 5 13.2s7.7 5.3 12.9 5.3c2.6 0 5-.5 7.3-1.5s4.8-2.5 7.5-4.4c.9-.7 1.5-1 2-1 1.1 0 1.6.6 1.6 1.9 0 .9-.3 2.2-.9 3.9-1.4 4.3-4.5 8.1-9.1 11.4-4.6 3.3-10.2 5-16.7 5-5.1-.1-9.7-1.4-13.9-4.2ZM13.2 29.3c1.5 3.4 0 7.4-3.3 8.9s-7.4 0-8.9-3.3c-1.5-3.4 0-7.4 3.3-8.9s7.4 0 8.9 3.3Zm6.3-18.6c1.5 3.4 0 7.4-3.3 8.9s-7.4 0-8.9-3.3c-1.5-3.4 0-7.4 3.3-8.9 3.4-1.6 7.4-.1 8.9 3.3ZM37.2 4c1.5 3.4 0 7.4-3.3 8.9s-7.4 0-8.9-3.3c-1.5-3.4 0-7.4 3.3-8.9C31.7-.9 35.7.6 37.2 4Zm19.4 3c1.5 3.4 0 7.4-3.3 8.9-3.4 1.5-7.4 0-8.9-3.3-1.5-3.4 0-7.4 3.3-8.9 3.4-1.6 7.4-.1 8.9 3.3m118.5 94.5c.1 0 .3-.1.4-.1 2.6-.9 4.3-3.4 4.3-6.2l-.1-29.5c0-1.3-.6-2.8-1.9-4.4-1.2-1.6-2.8-2.9-4.7-3.9-1.9-1.1-3.6-1.6-5.1-1.6-3.4 0-6.3 2.2-8.5 6.5-2.3 4.3-3.4 9.8-3.4 16.5 0 7 1.3 12.7 3.9 17.2 2.6 4.4 5.9 6.7 9.9 6.7 1.4-.2 3.2-.5 5.2-1.2Zm34 .4c.5 0 .8.1 1 .3.2.2.3.6.3 1.3 0 .8-.3 1.6-.9 2.5-.6.9-1.2 1.4-1.7 1.4-8.2 1-15.8 2.7-22.8 5.3-1.1.6-2 .9-2.6.9-.3 0-.7-.3-1.3-1-.1-.1-.1-.2-.2-.3-.5-.6-.6-1.3-.3-2 .6-1.5.8-3.1.8-4.4 0-1.1-1.4-1.6-2.1-.8-1.8 2-4 3.7-6.5 5-3.4 1.8-7 2.7-10.8 2.7-5.2 0-9.9-1.3-14.2-3.9-4.3-2.6-7.7-6.2-10.1-10.8-2.4-4.6-3.7-9.7-3.7-15.4 0-6.6 1.5-12.5 4.5-17.7 3-5.2 7.1-9.2 12.3-12.1 5.3-2.9 11.3-4.3 18.1-4.3 2.8 0 5.6.4 8.5 1.1l1.9.4c.4 0 .6-.5.6-1.6V32.3c0-3.4-.4-5.9-1.1-7.5-.8-1.5-2.2-2.5-4.2-2.9-1.1-.3-1.7-1.1-1.7-2.3 0-1.2.5-2 1.6-2.2 3.4-.7 7.2-1.7 11.3-2.9 4.1-1.3 7.4-2.5 10.1-3.7 2.1-1 3.3-1.4 3.7-1.4.5 0 .9.2 1.2.5.3.3.5.7.5 1.2-.1.4-.2 1.4-.4 2.9-.1 1.6-.3 3.2-.4 5l-.9 74.1c0 3.4.2 5.7.7 7 .5 1.3 1.3 2 2.6 2l5.6-.4h.6v.2Z"/>
  <rect x="1200" y="64" fill="#FFD75E" width="240" height="36" />
  <path fill="#708090" d="M579.2 134h4.1c5.5 0 6 3.4 6 4.9 0 1.5-.6 4.9-6 4.9h-4.1V134Zm4.1-4.6h-9v30.9h4.9v-12h4.1c7 0 11-3.4 11-9.5s-4-9.4-11-9.4Zm15.4 0v30.9h16.9v-4.5h-12V147h12v-4.6h-12V134h12v-4.6h-16.9Zm20.4 0v4.6h5.8v26.3h5V134h5.8v-4.6h-16.6Zm44.3 19.9h14.1c-2.7 6.6-8.4 7.1-10.1 7.1-5.3 0-11.1-4.6-11.1-11.4 0-6.4 4.9-11.6 11-11.6 4.4 0 6.9 2.8 8.1 4.1l.1.1h5.7l-.2-.4c-2.8-5.2-8.1-8.4-13.9-8.4-8.9 0-15.8 7.1-15.8 16.1 0 8.8 7.1 16 15.8 16 7.6 0 15.8-5.6 16-15.9v-.2h-19.7v4.5ZM693 134h4.4c4.8 0 6.5 2.9 6.5 5.4 0 3.7-2.8 5.7-8.1 5.7H693V134Zm15.9 5.4c0-2.9-1.1-5.7-2.9-7.4-1.9-1.8-4.5-2.6-8.3-2.6H688v30.9h4.9v-13.7l9.7 13.6.1.1h6.2l-8.5-11.4c1.8-.1 8.5-1.3 8.5-9.5Zm20 16.9c-7.7 0-11.1-6.7-11.1-11.5s3.5-11.5 11.1-11.5S740 140.2 740 145c0 4.7-3.4 11.3-11.1 11.3Zm0-27.5c-8.9 0-16.1 7.2-16.1 16s7.2 16 16.1 16c8.9 0 16.1-7.2 16.1-16 0-8.9-7.1-16-16.1-16Zm37.5 21.3c0 5.9-4.6 6.2-5.5 6.2-.9 0-5.5-.3-5.5-6.2v-20.7h-4.9v20.8c0 3.3 1 6 3.2 8 2.1 1.7 4.6 2.6 7.3 2.6s5.2-.9 7.3-2.7c2.1-2 3.2-4.6 3.2-8v-20.8h-4.9v20.8h-.2ZM783 134h4.1c5.5 0 6 3.4 6 4.9 0 1.5-.6 4.9-6 4.9H783V134Zm4.1-4.6h-9v30.9h4.9v-12h4.1c7 0 11-3.4 11-9.5s-4.1-9.4-11-9.4Z"/>
</svg>