<svg xmlns="http://www.w3.org/2000/svg" fill="none" viewBox="0 0 93 69">
  <path fill="gold"
    stroke="gold" stroke-width="1" stroke-opacity="0.5" stroke-linecap="round" stroke-linejoin="round" 
    d="M19.222 6.921a2.33 2.33 0 1 0 0-4.662 2.33 2.33 0 0 0 0 4.662Zm-6.66-1.665a2.33 2.33 0 1 0 0-4.662 2.33 2.33 0 0 0 0 4.662Zm-6.66 2.331a2.331 2.331 0 1 0 0-4.662 2.331 2.331 0 0 0 0 4.662Zm-2.997 6.66a2.334 2.334 0 0 0 .2-4.662 2.331 2.331 0 0 0 0 4.662h-.2Zm5.994 2.331c-.999-1.332-1.665-2.331-1.665-3.996S7.9 9.585 8.899 8.586c1-.999 2.331-1.665 3.996-1.665s2.997.666 3.996 1.665c.999.999 1.665 2.331 1.665 3.996s-.666 2.997-1.665 3.996c-.999.999-2.331 1.665-3.996 1.665s-2.997-.666-3.996-1.665Zm-4.995 33.3-.333-.666c0-.666.333-.999.999-1.332l2.331-.666c.666-.333.666-.999.666-1.665V31.563c0-1.665 0-2.664-.666-3.33l-1.998-.999-.666-.333v-1.665l.666-.333 5.328-1.665c1.665-.333 3.33-1.332 5.328-2.331l1.665-.333.666.333v.666l-.333 2.664-.333 6.993v14.319l.666 1.332 2.331.999.999.666.333.666c0 .666-.333.999-.999.999a92.94 92.94 0 0 1-8.325-.333 69.26 69.26 0 0 0-7.659.333l-.666-.333Z" />
  <path fill="turquoise"
    stroke="turquoise" stroke-width="1" stroke-opacity="0.5" stroke-linecap="round" stroke-linejoin="round" 
    d="m21.886 66.528-.666-.666c0-.666.666-.999 1.665-1.332l1.998-.999.333-1.665V31.23l-.666-2.331c-.666-.666-1.332-1.332-1.998-1.332l-.666-.333-.333-.999c0-.666.333-.999.999-.999a51.95 51.95 0 0 0 9.657-3.33l.666-.333.666-.333c.666 0 .666.333.666.999v2.331l-.333 1.332.333.666 4.329-2.997c1.998-.999 3.996-1.665 5.994-1.665 2.331 0 3.996.666 5.994 1.998 1.665 1.332 2.997 2.664 3.663 4.662.999 1.998 1.332 4.329 1.332 6.327a17.316 17.316 0 0 1-7.659 13.986c-2.331 1.665-4.662 2.331-7.659 2.331l-2.331-.333-2.997-.666V61.2c0 .999 0 1.665.666 1.998.333.666 1.332.999 2.664 1.332.999.333 1.332.666 1.332 1.332l-.333.666-.666.333-4.329-.333c-4.1-.33-8.22-.33-12.321 0Zm20.313-19.647c.999-.666 1.665-1.665 2.331-3.33.666-1.665.999-3.663.999-6.327 0-3.996-.666-6.66-1.998-8.325-.999-1.332-2.664-1.998-3.996-1.998l-3.33.999c-.999.666-1.332 1.332-1.332 1.998l-.333 10.989a9.324 9.324 0 0 0 2.331 5.994l2.997.999 2.331-.999Zm47.952-20.313c-2.664 1.998-4.662 1.665-5.661 1.665l-.333.333v2.331c0 2.664-.666 7.992-6.66 11.322-2.331.999-3.996 1.665-6.327 1.665l-4.662-.666h-.333l-.999 1.332c0 .666.666.999 1.998 1.332l7.326.999c4.995.333 8.658.999 10.656 2.331 2.331.999 3.33 2.331 3.33 4.662s-.999 4.662-2.664 6.993a20.645 20.645 0 0 1-25.308 5.994c-2.664-1.332-3.996-2.997-3.996-5.328 0-2.997 2.664-5.661 3.996-6.327l1.998-1.665v-.666c-2.664-1.332-3.996-2.331-3.996-4.662 0-2.997 3.663-4.662 4.995-5.994v-.666c-1.665-.999-2.664-2.331-3.663-3.663-.999-1.332-1.332-3.33-1.332-4.995a11.5 11.5 0 0 1 1.665-5.994c1.332-1.665 2.997-2.997 5.328-3.996 1.998-.999 4.329-1.332 6.66-1.332 4.662 0 8.991 1.332 10.323 1.998 3.33 1.332 5.994.999 6.993.666.999-.333 1.665-.666 1.998-1.332.333-.333.999 0 .666.333-.333 1.332-.999 2.664-1.998 3.33ZM76.498 55.872l-4.995-.666a32.305 32.305 0 0 1-5.328-.666c-1.998 1.332-3.33 2.997-3.33 4.662 0 1.998.666 3.33 2.331 4.662 1.332.999 4.329 1.665 6.66 1.665 1.665 0 4.329-.999 5.661-1.998 2.331-1.998 2.664-3.663 2.664-4.662 0-.999-.999-2.331-3.663-2.997ZM74.5 38.556c.999-1.332 1.332-3.33 1.332-5.994 0-2.664-.333-4.662-1.332-5.994-.666-1.332-1.665-2.331-2.997-2.331-1.332 0-2.331.666-3.33 2.331-.666 1.332-.999 3.33-.999 5.661 0 2.331.333 4.662 1.332 6.327.666 1.665 1.665 2.331 2.997 2.331 1.332 0 2.331-.666 2.997-2.331Z" />
</svg>