<?xml version="1.0" ?>
<svg viewBox="0 0 24 24" xmlns="http://www.w3.org/2000/svg">
    <path
        d="M16 10Zm4-6H17V3a1 1 0 00-2 0V4H13V3a1 1 0 00-2 0V4H9V3A1 1 0 007 3V4H4A1 1 0 003 5V19a3 3 0 003 3H18a3 3 0 003-3V5A1 1 0 0020 4ZM19 19a1 1 0 01-1 1H6a1 1 0 01-1-1V6H7V7A1 1 0 009 7V6h2V7a1 1 0 002 0V6h2V7a1 1 0 002 0V6h2Z"
        fill="gold" />
    <path d="M10 10.1H8a1 1 0 000 2h8a1 1 0 000-2Z" fill="turquoise" />
    <path d="M10 13.9a1 1 0 000 2.1h6a1 1 0 000-2.1Z" fill="turquoise" />
</svg>