<svg xmlns="http://www.w3.org/2000/svg" viewBox="0 0 24 24" fill="none">
  <path d="M5.625 3.75a2.625 2.625 0 100 5.25h12.75a2.625 2.625 0 000-5.25H5.625z" fill="turquoise" />
  <g fill="gold">
    <path d="M3.75 11.25a.75.75 0 000 1.5h16.5a.75.75 0 000-1.5H3.75z" fill-opacity="0.999" />
    <path d="M3 15.75a.75.75 0 01.75-.75h16.5a.75.75 0 010 1.5H3.75a.75.75 0 01-.75-.75z" fill-opacity="0.666" />
    <path d="M3.75 18.75a.75.75 0 000 1.5h16.5a.75.75 0 000-1.5H3.75z" fill-opacity=".333" />
  </g>
</svg>
