<svg fill="none" viewBox="0 0 24 24" xmlns="http://www.w3.org/2000/svg">
  <path fill="none" d="M19.63 3.65a1 1 0 00-.84-.2 8 8 0 01-6.22-1.27 1 1 0 00-1.14 0A8 8 0 015.21 3.45a1 1 0 00-.84.2A1 1 0 004 4.43v7.45a9 9 0 003.77 7.33l3.65 2.6a1 1 0 001.16 0l3.65-2.6A9 9 0 0020 11.88V4.43A1 1 0 0019.63 3.65Z" stroke="gold" stroke-width="2" />
  <path d="M13.5 9.6ZM13.54 9.59l-2.69 2.7-.89-.9a1 1 0 00-1.42 1.42l1.6 1.6a1 1 0 001.42 0L15 11a1 1 0 00-1.42-1.42Z" fill="turquoise" stroke="turquoise" stroke-width="0.5" />
</svg>
