<svg xmlns="http://www.w3.org/2000/svg" fill="none" viewBox="0 0 69 18">
    <path fill="gold" d="m51 0 6.062 3.75H44.938L51 0Z" />
    <g filter="url(#a)">
        <path fill="gold" d="M40 4a1 1 0 0 1 1-1h26a1 1 0 0 1 1 1v11a1 1 0 0 1-1 1H41a1 1 0 0 1-1-1V4Z" />
        <path transform="scale(0.925) translate(-1 2)" stroke="#30D5C8" stroke-width="0.5" fill="#30D5C8"
            d="M5.51 10.79 7.24 14H5.97l-1.56-2.91H3.03V14H1.87V6.76h2.62c1.8 0 2.36.98 2.36 2 0 1.08-.54 1.72-1.34 2.03Zm-2.48-.64h1.13c.85 0 1.48-.28 1.48-1.31 0-.86-.56-1.12-1.51-1.12h-1.1v2.43Zm6.397.7v2.17h3.36V14h-4.53V6.76h4.38v.98h-3.21v2.14h3.01v.97h-3.01ZM16.618 14h-1.17V7.74h-2.17v-.98h5.49v.98h-2.15V14Zm5.833-.86c1.11 0 1.57-.47 1.57-1.76V6.76h1.17v4.74c0 1.81-1.07 2.62-2.8 2.62-1.91 0-2.71-.88-2.71-2.65V6.76h1.17v4.59c0 1.26.48 1.79 1.6 1.79Zm8.05-2.35L32.23 14h-1.27l-1.56-2.91h-1.38V14h-1.16V6.76h2.62c1.8 0 2.36.98 2.36 2 0 1.08-.54 1.72-1.34 2.03Zm-2.48-.64h1.13c.85 0 1.48-.28 1.48-1.31 0-.86-.56-1.12-1.51-1.12h-1.1v2.43ZM38.956 14h-1.38l-3.25-5.69V14h-1.08V6.76h1.47l3.17 5.66V6.76h1.07V14Z" />
        <path fill="#223"
            d="M56.75 14.066c-2.48 0-3.45-1.54-3.45-3.69s1.19-3.8 3.62-3.8c2.44 0 3.39 1.65 3.39 3.66 0 2.34-1.12 3.83-3.56 3.83Zm.07-1.5c.9 0 1.52-.53 1.52-2.24 0-1.62-.51-2.25-1.46-2.25-1.02 0-1.6.65-1.6 2.26 0 1.67.55 2.23 1.54 2.23Zm6.297-.86v2.24h-1.91v-7.24h2.98c1.85 0 2.41 1.15 2.41 2.3 0 1.75-.92 2.7-2.88 2.7h-.6Zm0-1.42h.37c.64 0 1.14-.22 1.14-1.13 0-.87-.53-1.01-1.03-1.01h-.48v2.14Z" />
        <path fill="#223"
            d="M51.776 13.04h-1.872V4.496L46.952 5.96V3.968l3.912-2.184 3.84 2.184V5.96l-2.928-1.488v8.568Z" />
        <path fill="#223" stroke="#fff" stroke-width="0.25"
            d="M44.77 6.63c1.44 0 2.18.68 2.18 1.87 0 1.03-.49 1.7-1.56 2.87l-1.18 1.3v.03h2.85V14h-4.62v-1.26l1.55-1.81c.9-1.06 1.44-1.61 1.44-2.35 0-.48-.26-.76-.81-.76-.64 0-.89.39-.99 1.07l-1.36-.23c.17-1.43 1.16-2.03 2.5-2.03Z" />
    </g>
    <defs>
        <filter id="a" width="68.13" height="16.216" x=".87" y="1.284" color-interpolation-filters="sRGB"
            filterUnits="userSpaceOnUse">
            <feFlood flood-opacity="0" result="BackgroundImageFix" />
            <feColorMatrix in="SourceAlpha" result="hardAlpha" values="0 0 0 0 0 0 0 0 0 0 0 0 0 0 0 0 0 0 127 0" />
            <feOffset dy=".5" />
            <feGaussianBlur stdDeviation=".5" />
            <feComposite in2="hardAlpha" operator="out" />
            <feColorMatrix values="0 0 0 0 0 0 0 0 0 0 0 0 0 0 0 0 0 0 0.125 0" />
            <feBlend in2="BackgroundImageFix" result="effect1_dropShadow_122_15" />
            <feBlend in="SourceGraphic" in2="effect1_dropShadow_122_15" result="shape" />
        </filter>
    </defs>
</svg>